# xmcd
#
# Track frame offsets:
#	150
#	12477
#	24944
#	42899
#	54691
#	67979
#	81496
#	96310
#	109364
#	119667
#	132410
#	148764
#
# Disc length: 2254 seconds
# Revision: 0
# Processed by: cddbd v1.5.2PL0 Copyright (c) Steve Scherf et al.
# Submitted via: dBpowerAMP V12.0
#
DISCID=b108cc0c
DTITLE=Flatt Lonesome - Runaway Train
DYEAR=2015
DGENRE=Country
TTITLE0=You'll Pay
TTITLE1=Still Feeling Blue
TTITLE2=You're the One
TTITLE3=In the Heat of the Fire
TTITLE4=Don't Come Running
TTITLE5=In the Morning
TTITLE6=Road to Nottingham
TTITLE7=New Lease on Life
TTITLE8=Casting All Your Care on Him
TTITLE9=Mixed Up Mess of a Heart
TTITLE10=Letting Go
TTITLE11=Runaway Train
EXTD=
EXTT0=
EXTT1=
EXTT2=
EXTT3=
EXTT4=
EXTT5=
EXTT6=
EXTT7=
EXTT8=
EXTT9=
EXTT10=
EXTT11=
PLAYORDER=
